<svg xmlns="http://www.w3.org/2000/svg" viewBox="0 0 64 64">
  <defs>
    <linearGradient id="bg" x1="0%" y1="0%" x2="100%" y2="100%">
      <stop offset="0%" stop-color="#295b45" />
      <stop offset="100%" stop-color="#8db087" />
    </linearGradient>
  </defs>
  <rect width="64" height="64" rx="16" fill="url(#bg)" />
  <path
    d="M18 32c0-8.2 6.3-14 14-14 4.7 0 8.8 1.9 11.6 5.6l-4.1 3.2c-1.8-2.3-4.4-3.6-7.5-3.6-5.1 0-8.9 3.7-8.9 8.8s3.8 8.8 8.9 8.8c3.1 0 5.7-1.3 7.5-3.6l4.1 3.2C40.8 44.1 36.7 46 32 46c-7.7 0-14-5.8-14-14Z"
    fill="#f7f4ec"
  />
  <circle cx="46" cy="19" r="5" fill="#f7f4ec" opacity="0.9" />
</svg>
